<?xml version="1.0" standalone="no"?>
<!DOCTYPE svg PUBLIC "-//W3C//DTD SVG 20010904//EN"
 "http://www.w3.org/TR/2001/REC-SVG-20010904/DTD/svg10.dtd">
<svg version="1.0" xmlns="http://www.w3.org/2000/svg"
 width="512.000000pt" height="512.000000pt" viewBox="0 0 512.000000 512.000000"
 preserveAspectRatio="xMidYMid meet">
<metadata>
Created by potrace 1.14, written by Peter Selinger 2001-2017
</metadata>
<g transform="translate(0.000000,512.000000) scale(0.100000,-0.100000)"
fill="#000000" stroke="none">
<path d="M1158 4684 c4 -8 222 -229 485 -493 l477 -478 0 -193 0 -193 -107
-105 -108 -105 -188 -2 -187 -1 -485 488 c-267 268 -489 488 -494 488 -4 0 -8
-109 -7 -242 l1 -243 462 -462 c385 -385 467 -463 490 -463 239 -3 457 1 471
9 9 5 137 130 283 278 146 147 275 276 286 286 20 18 23 16 165 -125 80 -79
215 -212 300 -295 l154 -153 246 0 246 0 168 171 c93 94 203 204 244 244 167
164 470 472 488 495 18 23 19 44 20 258 0 153 -3 232 -10 230 -6 -2 -225 -219
-487 -481 l-477 -478 -182 -2 c-116 -1 -182 2 -182 8 0 6 80 89 178 185 l179
175 -1 115 -1 115 -80 2 c-140 4 -127 12 -323 -188 -98 -98 -180 -179 -184
-179 -5 0 -8 82 -8 182 l0 182 468 466 c257 256 477 476 489 490 l22 25 -244
0 -244 0 -57 -55 c-60 -58 -276 -275 -572 -573 -97 -98 -203 -203 -236 -234
l-58 -55 -459 460 -458 459 -245 0 c-203 0 -244 -2 -238 -13z"/>
<path d="M736 1946 l-584 -582 0 -467 c0 -257 3 -467 6 -467 3 0 159 153 346
340 188 186 447 444 577 573 l236 234 579 -573 c318 -315 580 -571 582 -569 3
2 5 1284 3 1388 -1 23 -60 87 -340 367 l-338 339 -242 0 -242 -1 -583 -582z"/>
<path d="M2983 2198 c-183 -183 -336 -342 -340 -353 -9 -27 -10 -1406 -1
-1412 5 -2 134 123 289 279 154 156 411 415 572 576 l291 293 100 -100 c177
-175 916 -902 1017 -998 l54 -53 1 467 1 466 -582 584 -582 583 -243 0 -244 0
-333 -332z"/>
</g>
</svg>
